<svg width="128.000000" height="82.000000" viewBox="0 0 128 82" fill="none" xmlns="http://www.w3.org/2000/svg" xmlns:xlink="http://www.w3.org/1999/xlink">
	<desc>
			Created with Pixso.
	</desc>
	<defs>
		<clipPath id="clip5_20">
			<rect id="svg" width="128.000000" height="82.000000" fill="white" fill-opacity="0"/>
		</clipPath>
	</defs>
	<g clip-path="url(#clip5_20)">
		<path id="path" d="M28.5 26.44L35.72 45.97L35.8 46.19L36.02 46.27L55.55 53.5L36.02 60.72L35.8 60.8L35.72 61.02L28.5 80.55L21.27 61.02L21.19 60.8L20.97 60.72L1.44 53.5L20.97 46.27L21.19 46.19L21.27 45.97L28.5 26.44Z" fill="#BCEC30" fill-opacity="1.000000" fill-rule="nonzero"/>
		<path id="path" d="M35.72 45.97L35.8 46.19L36.02 46.27L55.55 53.5L36.02 60.72L35.8 60.8L35.72 61.02L28.5 80.55L21.27 61.02L21.19 60.8L20.97 60.72L1.44 53.5L20.97 46.27L21.19 46.19L21.27 45.97L28.5 26.44L35.72 45.97Z" stroke="#202027" stroke-opacity="1.000000" stroke-width="1.000000"/>
		<path id="path" d="M110.5 1.44L114.75 12.94L114.83 13.16L115.05 13.24L126.55 17.5L115.05 21.75L114.83 21.83L114.75 22.05L110.5 33.55L106.24 22.05L106.16 21.83L105.94 21.75L94.44 17.5L105.94 13.24L106.16 13.16L106.24 12.94L110.5 1.44Z" fill="#000000" fill-opacity="0" fill-rule="nonzero"/>
		<path id="path" d="M114.75 12.94L114.83 13.16L115.05 13.24L126.55 17.5L115.05 21.75L114.83 21.83L114.75 22.05L110.5 33.55L106.24 22.05L106.16 21.83L105.94 21.75L94.44 17.5L105.94 13.24L106.16 13.16L106.24 12.94L110.5 1.44L114.75 12.94Z" stroke="#202027" stroke-opacity="1.000000" stroke-width="1.000000"/>
	</g>
</svg>
