<svg width="148.000000" height="113.000000" viewBox="0 0 148 113" fill="none" xmlns="http://www.w3.org/2000/svg" xmlns:xlink="http://www.w3.org/1999/xlink">
	<desc>
			Created with Pixso.
	</desc>
	<defs>
		<clipPath id="clip5_26">
			<rect id="svg" width="148.000000" height="113.000000" fill="white" fill-opacity="0"/>
		</clipPath>
	</defs>
	<g clip-path="url(#clip5_26)">
		<path id="path" d="M18.5 1.44L23.02 13.67L23.1 13.89L23.32 13.97L35.55 18.5L23.32 23.02L23.1 23.1L23.02 23.32L18.5 35.55L13.97 23.32L13.89 23.1L13.67 23.02L1.44 18.5L13.67 13.97L13.89 13.89L13.97 13.67L18.5 1.44Z" fill="#BCEC30" fill-opacity="1.000000" fill-rule="nonzero"/>
		<path id="path" d="M23.02 13.67L23.1 13.89L23.32 13.97L35.55 18.5L23.32 23.02L23.1 23.1L23.02 23.32L18.5 35.55L13.97 23.32L13.89 23.1L13.67 23.02L1.44 18.5L13.67 13.97L13.89 13.89L13.97 13.67L18.5 1.44L23.02 13.67Z" stroke="#202027" stroke-opacity="1.000000" stroke-width="1.000000"/>
		<path id="path" d="M106.5 31.44L117.24 60.46L117.32 60.68L117.53 60.76L146.55 71.5L117.53 82.23L117.32 82.31L117.24 82.53L106.5 111.55L95.76 82.53L95.68 82.31L95.46 82.23L66.44 71.5L95.46 60.76L95.68 60.68L95.76 60.46L106.5 31.44Z" fill="#000000" fill-opacity="0" fill-rule="nonzero"/>
		<path id="path" d="M117.24 60.46L117.32 60.68L117.53 60.76L146.55 71.5L117.53 82.23L117.32 82.31L117.24 82.53L106.5 111.55L95.76 82.53L95.68 82.31L95.46 82.23L66.44 71.5L95.46 60.76L95.68 60.68L95.76 60.46L106.5 31.44L117.24 60.46Z" stroke="#202027" stroke-opacity="1.000000" stroke-width="1.000000"/>
	</g>
</svg>
